<?xml version="1.0" encoding="utf-8"?>
<!-- Generator: Adobe Illustrator 23.0.2, SVG Export Plug-In . SVG Version: 6.00 Build 0)  -->
<svg version="1.1" id="Layer_2" xmlns="http://www.w3.org/2000/svg" xmlns:xlink="http://www.w3.org/1999/xlink" x="0px" y="0px"
	 viewBox="0 0 251.01 251.01" style="enable-background:new 0 0 251.01 251.01;" xml:space="preserve">
<style type="text/css">
	.st0{fill:#0071B9;}
	.st1{fill:#2B338C;}
	.st2{fill:#8FC73E;}
</style>
<g>
	<path class="st0" d="M188,184.52l-2.04-5.61c-0.09-0.28-0.15-0.57-0.25-0.85L142.28,58.76c-2.96-8.14-10.7-13.56-19.36-13.56H28.65
		c-8.17,0-13.86,8.12-11.06,15.8l47.75,131.2c2.49,6.84,8.34,11.75,15.27,13.17c0.05,0.01,0.11,0.02,0.17,0.03
		c0.38,0.07,0.76,0.14,1.14,0.2c0.17,0.02,0.34,0.04,0.51,0.06c0.29,0.03,0.58,0.07,0.87,0.09c0.49,0.04,0.98,0.06,1.47,0.06h81.49
		h22.23c9.67,0,18.3-6.05,21.61-15.13l1.43-3.92C206.18,195.92,191.89,195.2,188,184.52z"/>
	<path class="st1" d="M188,184.52l-2.04-5.61c-0.09-0.28-0.15-0.57-0.25-0.85l-24.36-66.92h-35.72c-7.25,0-13.73,4.53-16.21,11.35
		L86.2,186.25c-3.96,10.88-19.35,10.87-23.29-0.02l2.42,5.97c2.49,6.84,8.34,11.75,15.27,13.17c0.06,0.01,0.11,0.02,0.17,0.03
		c0.38,0.07,0.76,0.14,1.14,0.2c0.17,0.02,0.34,0.04,0.51,0.06c0.29,0.03,0.58,0.07,0.87,0.09c0.49,0.04,0.98,0.06,1.47,0.06H188.5
		c9.67,0,18.3-6.05,21.61-15.13l1.43-3.92C206.18,195.92,191.89,195.2,188,184.52z"/>
	<g>
		<path class="st2" d="M222.64,111.13h-61.29l24.36,66.92c0.1,0.28,0.16,0.57,0.25,0.85l2.04,5.61
			c3.89,10.68,18.19,11.41,23.54,2.24l21.91-60.2C236.17,119.06,230.62,111.13,222.64,111.13z"/>
	</g>
</g>
</svg>
