<?xml version="1.0" encoding="utf-8"?>
<!-- Generator: Adobe Illustrator 25.2.1, SVG Export Plug-In . SVG Version: 6.00 Build 0)  -->
<svg version="1.1" xmlns="http://www.w3.org/2000/svg" xmlns:xlink="http://www.w3.org/1999/xlink" x="0px" y="0px"
	 viewBox="0 0 350.3 345.6" style="enable-background:new 0 0 350.3 345.6;" xml:space="preserve">
<style type="text/css">
	.st0{display:none;}
	.st1{display:inline;fill:#FFFFFF;}
	.st2{display:inline;}
	.st3{fill:#FFFFFF;}
	.st4{fill:#0572BA;}
	.st5{fill:#8FC641;}
	.st6{fill:#2A3889;}
</style>
<g id="Mac" class="st0">
	<path class="st1" d="M301.4,118.9c-12.5,8.5-22.4,18.7-28.7,32c-16.8,35.4-2.4,77.7,32.6,95.5c4,2.1,4.8,3.8,3.2,8.1
		c-8.7,23.8-22,45.8-39,64.6c-16.6,18.6-33.5,21.8-56.3,12c-4.9-2.2-10-4.1-15.1-5.7c-13.7-3.9-27.2-2.4-40.5,2.6
		c-8,3-15.9,6.5-24.2,8.1c-14,2.7-25.4-3.4-35.1-13.2c-13.6-13.9-24.9-29.7-33.7-47c-15.8-30.8-24.7-63.4-23.1-98.3
		c0.9-21.2,6.7-41.1,19.7-58.3c18.1-24,53.8-42.8,91.4-25.4c17.2,8,32.9,8.1,50.1,0c24.7-11.6,49.8-10.6,74.1,2.4
		C286.7,101.8,295.1,109.5,301.4,118.9z"/>
	<path class="st1" d="M240.8,7c5.8,30.7-24,77.2-64.4,75.3C166,53.4,207.3,5.2,240.8,7z"/>
</g>
<g id="Windows" class="st0">
	<g class="st2">
		<path class="st3" d="M326.7,330.2c-10.5-1.7-20.9-3.5-31.4-5c-43.2-6.1-86.3-12.2-129.5-18.2c-2.4-0.3-3.9-0.9-3.9-3.9
			c0.1-39.8,0-79.6,0-119.4c0-0.5,0.2-0.9,0.4-1.6c56.2,0,112.5,0,169.3,0c0,2.3,0,4.3,0,6.2c0,45.3,0,90.6,0,135.9c0,2,0.1,4,0.2,6
			C330,330.2,328.4,330.2,326.7,330.2z"/>
		<path class="st3" d="M331.2,165c-56.4,0-112.5,0-169,0c0-41,0-82.5,0-124.8c56.1-8.2,112.4-16.4,169-24.7
			C331.2,65.2,331.2,114.4,331.2,165z"/>
		<path class="st3" d="M145.6,304.4c-42.7-5.9-84.8-11.7-127.3-17.5c0-35.5,0-70.7,0-106.1c42.3,0,84.7,0,127.3,0
			C145.6,222.1,145.6,262.8,145.6,304.4z"/>
		<path class="st3" d="M145.5,166.2c-42.3,0-84.6,0-127.2,0c0-35.1,0-70.3,0-106.2c42.1-5.7,84.4-11.5,127.2-17.3
			C145.5,83.9,145.5,124.7,145.5,166.2z"/>
	</g>
</g>
<g id="Linux" class="st0">
	<g class="st2">
		<path class="st3" d="M304.5,281c-3.5,6.6-9.5,10.3-15.9,13.4c-11.4,5.5-21.3,12.6-30.2,21.9c-9.4,9.8-25.2,15.3-37.5,7.6
			c-4.3-2.7-7.2-7.8-10.7-11.8c-1-1.1-2.1-2.9-3.3-3.1c-9.5-0.9-19.1-2.3-28.6-2c-9.8,0.3-19.5,2.4-29.2,3.9
			c-1.6,0.2-3.3,1.4-4.3,2.7c-4.8,6.5-11.1,9.3-19.1,9.8c-11.4,0.8-21.2-3.7-31.4-7.6c-6.2-2.4-13-3.6-19.6-4.9
			c-5.5-1.1-11.2-1.3-16.6-2.6c-8.8-2.1-12.4-8.3-10.6-17.7c1.6-8.1,2.3-15.9,1.3-24.3c-1.5-12.1,1.7-17.4,13.5-21.1
			c9.1-2.8,12.9-10.5,18.8-16.4c0.6-0.6,0.7-2,0.6-2.9c-2.3-20.7,5.5-38.7,15.8-55.6c8.8-14.5,19.2-27.9,28.3-42.2
			c4.7-7.4,7.6-15.9,7.7-24.9c0.2-14.2-0.3-28.4,0.1-42.6c0.4-13.1,3.9-25.2,14.3-34.3c6.1-5.3,13.2-7.9,21-9.5
			c12.3-2.6,24-1.6,35.3,3.9c9.1,4.4,14.8,11.9,18.3,21.1c5.7,15.5,6.6,31.7,6.1,47.9c-0.3,10.8,0.7,21.3,6.5,30.5
			c5.5,8.6,11.7,16.7,18.1,24.7c12.2,15.1,22,31.4,27,50.3c2.9,10.9,3.2,22.2,0.2,33.3c-0.4,1.4-0.2,4.1,0.7,4.7
			c5.2,3.2,7.7,7.9,8.8,13.6c1.4,7.5,4.3,14.1,9.4,19.9c2.4,2.8,3.6,6.6,5.4,10C304.5,278.2,304.5,279.6,304.5,281z M111.4,221.1
			c-10.1-14.4-7.4-28.3-3.3-42.4c-2.3,4.7-4.3,9.4-5.6,14.3c-3.1,11.5-2.9,23.1,5.2,32.4c4.9,5.7,12.2,9.1,17.9,14.2
			c5.9,5.3,11.9,10.8,16.6,17c6.1,8.1,4.2,13.4-4.7,17.4c-0.5,0.2-0.9,1-1.2,1.4c4.2,7.8,10.1,13.2,18.4,16.1
			c17.8,6.1,34.6,3.3,50.6-5.5c3.9-2.1,8-4.6,8.8-9.8c1.1-8.1,2.3-16.2,3.3-24.2c1.2-9.5,1.8-19,9.8-26.1c2.6-2.3,4.2-5.9,6.6-8.5
			c1.7-1.9,3.9-4.3,6.1-4.6c9.9-1.2,18.6,2.3,25.9,8.7c2.7,2.3,4,6.3,5.9,9.4c1.7-7.6-0.5-10.1-18.4-20.5c1.9-14.2-0.1-27.7-9-39.6
			c5,12.1,8.9,24.2,3.5,37.3c-2.5,0-4.9,0-6.1,0c-4.3-11.7-8-22.9-12.5-33.9c-7.4-18.2-15.3-36.2-22.8-54.3c-1-2.5-1.6-5.2-2.3-7.8
			c-3.6,2.3-6.3,4.2-9.3,5.8c-4.1,2.3-8.4,4.4-12.5,6.6c-10.4,5.6-21.8,6.3-30.5-2.9c-2.1-2.2-5.1-3.7-7.9-5.6
			c-0.4,2.9-0.5,5.1-0.9,7.3c-3.2,17.5-10.7,33.5-18,49.6c-5.2,11.4-10.7,22.7-11.7,35.6C113,212.3,112.1,216.2,111.4,221.1z
			 M118.8,319.6c0.1-0.4,0.3-0.8,0.4-1.2c0.7,0.1,1.4,0.2,2,0.2c9.4,0.3,19.6-1.9,22.2-15c1.5-7.4-2.6-12.8-6.2-18.2
			c-5.5-8-11.7-15.4-17-23.5c-5.4-8.2-9.5-17.3-15.2-25.3c-7.6-10.7-17.2-10.2-24.7,0.6c-3.3,4.8-7.2,8.9-12.8,11.2
			c-2.5,1-4.9,2.3-7.5,3.2c-4.9,1.9-7.1,5.4-6.8,10.7c0.7,10.3,2.1,20.6-1.9,30.8c-1.6,4.2,1.5,8.5,6.1,9.8c4.9,1.4,9.9,2,14.8,3.2
			c8.5,2,17.1,3.8,25.5,6.3C105,314.4,111.8,317.1,118.8,319.6z M231.9,228.7c-5.6,3.6-7.6,8.8-8.4,14.3c-1.3,8.2-1.5,16.6-3,24.8
			c-1.9,10.1-4.8,20-7.1,30.1c-2.5,10.7,4.2,20.3,13.1,23.7c10.7,4,25.5-4.6,33.1-12.5c3.8-4,7.9-8,12.5-11
			c6.6-4.4,13.9-7.7,20.9-11.7c7.1-4,8.6-8.7,3.5-14.8c-6.4-7.7-10-16.3-12.1-25.9c-2.1-9.6-13.7-12.2-20.6-6.5
			c-2.2,1.8-4.6,3.5-7.1,4.9c-9.1,5.1-17.8,2.4-22.3-7.1C233.3,234.6,232.9,232.1,231.9,228.7z M167.5,83.8c-3.7,1.5-8,2.7-11.6,4.9
			c-4.3,2.7-7.9,6.4-12,9.4c-5.5,4.1-6.2,7.9-1.1,12.4c5.3,4.7,11.2,8.9,17,13c4.6,3.2,9.9,2.9,14.7,0.9c7.2-3,14.1-6.6,20.9-10.4
			c4.3-2.4,9.1-6.1,8.1-11.3c-0.6-3.1-4.9-6.2-8.2-8.1c-5.3-3-11-5.2-16.7-7.5C175.3,85.9,171.8,85.1,167.5,83.8z M193.3,90.4
			c6.6,2.8,6.7,2.7,8.9-4.2c1.8-5.5,1.7-11-0.4-16.3c-2.1-5.2-5.5-9.6-11.6-10c-8.8-0.6-16.2,7.3-16.7,16.9c-0.2,4.7,1.3,7,6,6.6
			c0.5-2.7,0.5-5.5,1.7-7.5c1.4-2.2,4-5,6.2-5.1c1.9-0.1,5.2,3,5.6,5.2C193.9,80.6,193.3,85.3,193.3,90.4z M243.6,216.5
			c-5.5-0.1-7.7,2.3-7.8,8.2c-0.1,7.6,4.3,13.8,9.8,13.8c6.1,0.1,14.1-5.9,14.3-10.7C260.1,223.1,250.8,216.6,243.6,216.5z
			 M156.9,83.8c3.7-0.6,5.5-2.9,4.4-6.1c-1.6-4.5-3.4-9.1-6.2-12.9c-2.5-3.4-6.4-3-9.6,0c-7.2,6.7-7.2,18.8,0.7,28.1
			c0.5-1.6,0.6-3.2,0.5-4.7c-0.2-3.7-0.7-7.5-0.5-11.2c0.1-1.2,2.1-2.8,3.4-3.1c1.2-0.2,3.2,0.9,3.9,2
			C154.9,78.2,155.7,81,156.9,83.8z"/>
		<path class="st3" d="M142.9,101.9c4.3,3.3,7.7,6.2,11.3,8.7c6.7,4.8,14,4.8,21.2,1.4c5.4-2.5,10.5-5.6,15.8-8.2
			c2.1-1.1,4.5-1.7,7.8-3c-0.7,2.1-0.7,3.2-1.2,3.5c-8.2,4-16.2,8.4-24.7,11.7c-10,3.8-25-2.1-30.1-11
			C142.7,104.5,142.9,103.7,142.9,101.9z"/>
	</g>
</g>
<g id="Raspberry" class="st0">
	<path class="st1" d="M101.3,102.3c-1.7-0.5-3.2-1-4.8-1.5c-3-1.2-5.2-3.2-6.1-6.4c-0.1-0.5-0.7-0.9-1.1-1.1
		c-1.8-0.9-3.8-1.6-5.6-2.6c-2-1.1-3.4-2.9-4.1-5.1c-0.6-1.9-1.7-3.3-3.1-4.7c-1.6-1.7-3.2-3.5-4.5-5.4c-0.6-0.9-0.9-2.3-0.8-3.5
		c0-1.1-0.4-1.6-1.1-2.2c-2.4-2-4.1-4.4-4.3-7.6c-0.1-1,0-2.1,0.2-3.1c0.2-0.8,0-1.2-0.6-1.7c-2.1-1.7-3.8-3.7-4.1-6.5
		c-0.1-1.1,0.2-2.4,0.6-3.5c0.2-0.6,0.3-1,0-1.6c-0.8-1.5-1.7-2.9-2.3-4.5c-1.1-2.6-0.8-5.1,0.8-7.4c0.6-0.8,0.6-1.5,0.3-2.4
		c-0.5-1.5-0.9-3.2-0.9-4.8c0.2-4.4,3.2-7.3,7.9-7.9c1.5-0.2,3.1,0.3,4.4-0.2c1.2-0.5,2-1.9,3.2-2.7c2.1-1.4,4.5-2,7-2.2
		c0.8-0.1,1.6-0.2,2.4-0.1c1.8,0.2,3.3-0.2,4.8-1.4c2.1-1.7,4.7-1.5,7.3-1.2c0.5,0.1,1.1,0,1.4-0.2c3.8-3.3,8.1-3.2,12.4-1.3
		c0.7,0.3,1.3,0.5,2,0c3.8-3.1,7.6-2.1,11.5-0.2c1.1,0.5,2,0.7,3.2,0.3c2.7-0.8,5.4-0.5,7.7,1.2c1.7,1.2,3.5,1.9,5.8,1.6
		c2.8-0.3,5.3,0.7,7.5,2.6c0.5,0.4,1.1,0.8,1.5,1.4c1.5,2,3.3,3.1,5.8,2.6c0.4-0.1,0.9,0.2,1.3,0.4c5.8,3.1,10.2,7.7,13.3,13.5
		c2.2,4,3.8,8.3,5.6,12.4c0.2,0.4,0.3,0.7,0.5,1.4c0.8-1.9,1.5-3.5,2.3-5.1c3-6.4,6.5-12.5,11.5-17.6c1.3-1.3,2.9-2.5,4.3-3.7
		c1.4-1.2,3-1.5,4.8-1.4c0.6,0,1.3-0.4,1.8-0.8c1.9-1.5,3.6-3.2,5.5-4.6c1.8-1.2,4-1.4,6.1-1.1c1.2,0.2,2.2-0.1,3.2-0.7
		c0.5-0.3,1.1-0.6,1.6-1c2.4-1.6,5-2,7.7-1.1c1.2,0.4,2.3,0.3,3.4-0.3c0.6-0.3,1.3-0.6,2-0.9c3.3-1.5,6.5-1.1,9.4,1
		c0.4,0.3,1.1,0.4,1.5,0.3c4.8-2.2,9.5-1.7,14,0.7c1.2,0.6,2.2,0.9,3.6,0.7c1.5-0.2,3.2-0.3,4.6,0.1c1.1,0.3,2.2,1.1,3.1,1.9
		c0.5,0.5,0.9,0.8,1.7,0.8c3.3-0.2,6.6-0.1,9.7,1.4c1.4,0.7,2.6,1.8,3.8,2.9c0.6,0.6,1.1,0.7,1.8,0.8c1.8,0.1,3.8,0.2,5.4,0.8
		c3.9,1.4,5.6,5.3,4.7,9.8c0,0.1,0,0.2-0.1,0.2c-1.2,2.3-0.8,4.5,0.1,6.8c1.2,3.2,0.4,6.2-1.5,8.8c-0.6,0.9-0.9,1.7-0.7,2.9
		c0.5,2.2-0.2,4.3-1.1,6.4c-0.4,0.8-0.8,1.6-1.3,2.3c-1.2,1.5-1.7,3.1-1.5,5.1c0.3,3.5-1.7,6.1-4.3,8.1c-0.6,0.5-0.9,1-1,1.9
		c-0.5,4.7-3.1,8.1-7,10.5c-0.9,0.5-1.9,0.9-2.2,2.1c-1.2,4.4-4.5,6.8-8.6,8.3c-0.6,0.2-1.2,0.3-1.7,0.6c-0.4,0.2-0.8,0.5-0.9,0.9
		c-1,4-3.9,6-7.6,7.2c-1.1,0.3-2.2,0.6-3.6,1c0.7,0.4,1.2,0.7,1.6,1c5.5,3.3,10.7,7,15,11.7c5.5,6,8.8,13.1,10.7,21
		c1.1,5,1.7,10,1.7,15.1c0,2.7,1.4,4.8,3.4,6.1c10.9,7.5,17.5,17.9,20.5,30.6c3.1,13.4,0.3,25.8-7.4,37.1c-1.7,2.4-3.7,4.6-5.5,6.9
		c-0.5,0.6-0.9,1.2-1.1,1.9c-2.3,6.8-4.7,13.6-6.8,20.5c-1,3.1-1.3,6.4-2.3,9.6c-4.7,15.5-14.2,27.2-28.7,34.5
		c-3,1.5-5.8,3.2-8.5,5.3c-7.8,6-16.4,10.7-25.6,14.2c-1.8,0.7-3.2,1.6-4.6,2.9c-7.1,6.6-15.1,11.6-24.6,14
		c-16.3,4.1-31.5,1.4-45.3-8.3c-2.9-2-5.5-4.5-8.2-6.7c-0.6-0.5-1.3-1.1-2.1-1.3c-11.4-4.3-21.9-10.2-31.2-18
		c-0.3-0.3-0.7-0.5-1.1-0.6c-5.9-1.9-10.8-5.4-15.3-9.4c-7.3-6.5-12.7-14.3-15.8-23.6c-1.1-3.1-1.6-6.5-2.5-9.7
		c-0.9-3.2-2-6.3-2.9-9.4c-1.2-4.6-2.3-9.2-3.5-13.8c-0.2-0.7-0.5-1.4-0.9-1.9c-5.8-7.1-9.9-14.9-11.5-24c-1.5-8.5-0.8-16.8,2-25
		c2.6-7.5,6.4-14.3,11.9-20.1c1.9-2,4.2-3.6,6.3-5.5c1.9-1.8,3.5-3.6,3.5-6.5c0.1-7.6,1.2-15.1,4-22.3c3.4-8.8,9.2-15.8,16.9-21.2
		C95.9,105.6,98.6,104,101.3,102.3z M260,80.8c5.1-2.7,10.6-4.7,15-8.8c-2.3-0.1-4.4,0-6.3-1.3c3.8-3.3,7.4-6.5,11-9.6
		c-2,0-3.9,1.3-5.8-0.5c3.5-3.6,7.7-6.5,9.9-11.3c-2.6,0.5-5,1.7-7.6-0.2c3.5-3.4,7.7-6.2,8.8-11.3c-2,0-4,0-6.4,0
		c1-2.1,1.8-4.1,2.8-5.9c1.1-1.8,2.4-3.5,3.7-5.5c-5.1,0-10,0-14.9,0c-0.1-0.1-0.1-0.2-0.2-0.4c1.2-1.1,2.4-2.1,3.6-3.2
		c0-0.1,0-0.3-0.1-0.4c-1.6-0.3-3.2-0.7-4.8-0.8c-3.7-0.3-7.1,1-10.6,2c-0.8,0.2-1.4,0.2-1.7-0.5c-0.1-0.4,0.1-1.1,0.4-1.5
		c0.7-0.9,1.5-1.7,2.5-2.7c-4.6,1.2-9,2.4-13.6,3.7c-0.5-3.1,2.8-3.8,3.7-6.2c-5.3,1.5-10.4,3.1-14.9,6.2c-1.4-1.4-1.5-2.2-0.5-3.7
		c0.5-0.7,0.9-1.5,1.6-2.5c-4.9,1.8-8.6,4.7-12.7,7.6c-0.7-1-1.7-1.8-2-2.8c-0.3-1,0.2-2.2,0.3-3.4c-0.9,0.5-2.1,1-3,1.8
		c-2.3,2-4.5,4.2-6.8,6.4c-1.8-1.4-1.2-3.5-1.3-5.7c-3.2,3.7-6.4,7.3-9.8,11.2c-0.5-1.8-1-3.3-1.5-4.9c-3.1,2.8-5.7,5.9-8,9.4
		c-3.7,5.7-6.6,11.7-7.1,18.6c-0.6,7.5,2.5,13,9,16.8c0.9,0.5,1.4,0.5,2.3-0.2c6.8-5.7,14.2-10.6,21.9-14.9
		c12.4-6.9,25.5-12.4,38.8-17.4c0.3-0.1,0.6-0.2,0.8-0.2c-0.4,0.4-0.9,0.7-1.4,1c-11.6,6.1-23,12.6-33.9,20
		c-7.1,4.8-13.9,10-19.9,16.2c-2.8,2.9-2.8,2.9-1.1,6.5c3.1,6.7,8.6,10.5,15.3,13c6.9,2.5,14.1,3.1,21.4,3.3c1.1,0,2.2,0,3.6,0
		c-1.2-1.1-2.2-1.9-3.2-2.7c-0.7-0.7-0.6-1.3,0.3-1.6c1.2-0.3,2.5-0.6,3.7-0.7c2.7-0.3,5.4-0.4,8.1-0.8c1.6-0.2,3.2-0.9,4.8-1.4
		c-3.2-1.3-3.6-1.6-4.5-3c5-1.5,10-3.2,14.7-6.2C262.8,82.3,261.1,82.8,260,80.8z M110.9,98.4c10,0.9,19.7,0,28.8-4.7
		c5.9-3.1,10.2-7.7,12.2-14.2c0.3-0.9,0.2-1.5-0.5-2.2c-6.4-6.9-13.8-12.6-21.6-17.9C119,52,107.6,45.5,96,39.4
		c-0.5-0.3-1-0.6-1.5-0.8c0.4-0.1,0.7-0.1,1,0c2.9,1,5.9,2,8.8,3.1c14.8,5.5,28.8,12.5,41.8,21.6c3.6,2.5,6.9,5.3,10.4,7.9
		c0.3,0.3,1,0.5,1.3,0.4c3.9-1.9,7.2-4.6,9-8.7c2.1-4.8,1.7-9.6,0.3-14.5c-1.7-5.9-4.7-11.2-8.4-16.1c-1.5-2-3.2-3.9-5.1-6.1
		c-0.3,2,0.2,3.8-1.1,5.1c-3.4-3.8-6.8-7.5-10.1-11.2c-0.1,0.1-0.2,0.1-0.3,0.2c0.1,1.1,0.2,2.2,0.2,3.2c0,1.2-0.4,2.1-1.3,2.5
		c-3-2.9-5.8-5.6-8.9-8.6c0.4,4.1,0.2,4.8-1.6,6.2c-3.9-2.7-7.6-5.7-12.3-7.3c0.7,2.1,3.5,3.7,1.1,6c-2.4-1.4-4.7-2.9-7.1-4
		c-2.4-1-5-1.5-7.6-2.3c-0.1,0.1-0.1,0.3-0.2,0.4c0.5,0.4,1,0.8,1.4,1.2c0.8,0.7,1.7,1.3,2.3,2.1c0.3,0.5,0.3,1.4,0.1,2.1
		c-0.3,0.9-1,0.4-1.6,0.3c-0.4-0.1-0.7-0.2-1.1-0.3c-3.6-1-7.2-2-10.9-3c1,1,1.9,1.8,2.6,2.8c0.2,0.3,0.2,1.2-0.1,1.6
		c-0.2,0.3-0.9,0.4-1.4,0.3c-1.8-0.3-3.6-0.8-5.4-1.1c-3.4-0.6-6.7-0.6-10.2,0.2c1.3,1.7,2.4,3.2,3.7,5c-5.2,0-10.1,0-15.2,0
		c2,3.8,4.1,7.3,5,11.5c-2.1,0-4.1,0-6.3,0c0.6,1,1,1.8,1.5,2.6c1.6,2.3,3.9,3.7,6.1,5.3c0.9,0.6,1.7,1.3,2.5,2
		c0,0.1-0.1,0.3-0.1,0.4c-1.2,0.3-2.3,0.7-3.5,0.7c-1.2,0-2.4-0.4-3.8-0.6c2.5,4.8,6.8,8,9.9,12.4c-2.1,0-4,0-6,0
		c3.8,3,7.4,5.9,11.1,8.9c-1.9,1.3-3.9,1.1-5.9,1.3c-0.1,0.1-0.1,0.3-0.2,0.4C83.9,75.2,88.7,78,94,81c-2.2,0.5-4,0.8-6,1.3
		c2.1,2.1,4.8,3.2,7.6,4.2c2.8,1,5.6,2,8.4,3c0,0.2,0.1,0.3,0.1,0.5c-1.4,0.8-2.9,1.6-4.3,2.4c0.8,0.2,1.8,0.6,2.8,0.7
		c3.2,0.4,6.5,0.7,9.7,1c0.7,0.1,1.3,0.3,2,0.5C113.9,96.7,112.3,97.3,110.9,98.4z M183.9,173.2c0.1,8.9,2.6,16.7,7.4,23.6
		c9.6,13.9,22.4,21,39.5,19.1c5.1-0.6,9.7-2.6,13.5-6.2c7-6.5,9.9-14.8,10-24.1c0.2-8.6-2.1-16.6-6.4-24
		c-6.6-11.4-16-18.9-29.2-20.8c-10.7-1.6-20,1.7-27,10.1C186.2,157.6,184,165.3,183.9,173.2z M168.2,175.8c0-7.7-1.2-13.6-4.2-19
		c-3.7-6.6-9.1-11.3-16.5-13.5c-7.5-2.2-14.9-1.3-21.8,1.9c-12,5.5-20.9,14.2-25,27c-3,9.5-3.5,19,0.4,28.3
		c4.3,10.2,12.1,16.3,23.1,17.7c10,1.3,19-1.8,26.7-8.1C162.3,200.9,167.5,188.6,168.2,175.8z M177.5,211.2
		c-13.9-0.2-25.9,6.2-32.9,16.9c-7.3,11.2-6.7,26.3,1.8,36.6c10.5,12.6,24.2,17.3,40.1,13.7c13.5-3,23-11.2,26.6-24.8
		c3.5-12.9-0.4-24-10.3-32.9C195.4,214.1,186.4,211.4,177.5,211.2z M217.8,278.5c0.2,1.2,0.2,3.1,0.7,5c0.8,3.6,2.7,6.4,6.2,8
		c5.5,2.5,11.3,2.4,17,0.9c12.7-3.4,21.5-11.8,28.2-22.6c3.4-5.5,4.6-11.7,5-18.1c0.4-7.7-0.6-15.2-3.7-22.4
		c-0.7-1.6-1.7-3.3-2.9-4.5c-2.3-2.1-5.2-2.4-8.2-2c-4.1,0.5-7.7,2.3-11,4.6c-9.4,6.4-17.1,14.5-23,24.2
		C221,259.5,218.1,268.2,217.8,278.5z M132.8,277.5c-0.2-7.3-2.3-14.6-6.2-21.4c-4.5-7.9-10.9-14.3-18.4-19.4
		c-4.4-3-9.1-5.3-14.5-5.9c-4.6-0.5-9,0.3-12.1,4.2c-1.9,2.4-2.9,5.3-3.3,8.3c-1.5,11,1.4,21.1,7.1,30.2c5.3,8.5,12.9,14.7,22.5,18
		c5.3,1.8,10.7,2.5,16.3,1.2c3.5-0.8,5.8-2.8,7.1-6.1C132.4,283.7,132.7,280.9,132.8,277.5z M177.7,140.3c1.6-0.1,4.5-0.2,7.3-0.6
		c6.2-0.7,12.3-2.2,17.7-5.5c3.3-2,6-4.5,7.2-8.3c1.5-4.6-0.1-8.6-3-12.1c-6.6-7.8-15.2-11.8-25.1-13.6c-7.3-1.3-14.4-0.1-21.2,2.6
		c-6,2.4-11.3,5.8-15.4,10.9c-4.2,5.2-4.3,10.2,0.2,15.1c1.9,2.1,4.3,4,6.7,5.4C159.7,138.8,167.9,140.2,177.7,140.3z M180.4,292.2
		c-1,0-1.9,0.1-2.9,0.1c-8.3,0.2-16.4,1.5-24.4,4.1c-3.9,1.2-7.7,2.8-10.9,5.4c-3,2.4-3.3,4.6-1.2,7.8c0.2,0.4,0.5,0.7,0.7,1
		c3.1,3.9,7,6.9,11.2,9.5c9.3,5.6,19.2,7.8,30,5.6c7.9-1.6,14.9-5.3,21.2-10.2c3-2.3,5.7-4.7,7.8-7.9c1.5-2.2,1.5-4.1-0.3-6
		c-1.3-1.4-2.8-2.7-4.4-3.5C198.9,293.5,189.8,292.2,180.4,292.2z M262.3,182.7c0.1,7,0.9,13.9,2.4,20.6c1.3,5.8,2.8,11.6,5.5,16.9
		c1.1,2.2,2.5,4.3,4.6,5.8c1.8,1.2,3.6,1.1,5-0.4c1.7-1.8,3.3-3.6,4.7-5.6c4.3-6.5,6.5-13.8,6.7-21.6c0.4-15.1-5.7-26.6-18.6-34.6
		c-2-1.2-4.9-0.8-6.2,0.9c-0.9,1.3-1.8,2.7-2.3,4.1C262.4,173.3,262.4,178,262.3,182.7z M86.1,182.2c-0.2-2.1-0.3-5.4-0.8-8.7
		c-0.3-2.6-1-5.1-2.6-7.3c-1.4-2-3.8-2.6-5.7-1.5c-4,2.4-7.7,5.4-10.7,9.1c-8.4,10.4-10.6,22.2-7.5,35.1c1.6,7,4.9,13.1,10.1,18.1
		c1.2,1.2,2.6,1.3,4,0.6c0.8-0.4,1.7-0.9,2.2-1.7c1.5-2.3,3.2-4.7,4.3-7.2C84,207.3,85.7,195.5,86.1,182.2z M223.3,107.7
		c-1.9,0.2-5.2,0.5-8.5,0.9c-1.4,0.2-1.9,0.8-1.3,2.2c0.6,1.3,1.3,2.6,2.2,3.8c4.2,5.7,9.3,10.6,14.4,15.4
		c8,7.4,16.3,14.3,25.5,20.1c2.5,1.5,5,3,7.9,3.4c2,0.2,2.8-0.5,2.7-2.5c-0.1-3.2-0.1-6.3-0.5-9.5c-1.1-7.9-4.1-15-9.5-21
		C247.7,111.4,236.9,107.9,223.3,107.7z M82.6,147.3c0,0.8,0,1.6,0,2.4c0,0.1,0,0.3,0,0.4c0.1,1.5,0.8,2.2,2.3,2.2
		c0.5,0,1,0,1.5-0.2c2.3-1.1,4.8-2,6.9-3.3c8.2-5,15.6-11.1,22.7-17.5c6.2-5.5,12.2-11.2,17.2-17.9c0.9-1.2,1.6-2.5,2.2-3.8
		c0.6-1.3,0.2-2-1.3-2.2c-6.3-1.1-12.5-1.1-18.8,0.1c-8.6,1.7-16.1,5.4-22.1,11.9C85.9,127.1,82.8,136.7,82.6,147.3z"/>
</g>
<g id="Github" class="st0">
	<g class="st2">
		<path class="st3" d="M211.5,252.2c3.8-0.8,7.6-1.6,11.4-2.6c13.5-3.4,26.3-8.5,37.7-16.5c16.5-11.5,27.3-27,31.4-46.8
			c1.8-8.6,2.1-17.4,1.4-26.1c-0.8-9.9-2.8-19.4-6.7-28.6c-3.5-8.2-8.2-15.5-14.2-22c-0.2-0.2-0.3-0.4-0.6-0.7
			c2.1-3.5,3.2-7.3,3.8-11.3c1.9-11.5,1.3-22.8-3.9-33.4c-0.8-1.6-1.9-3.1-2.8-4.7c-0.4-0.7-1-0.9-1.8-0.9
			c-12.9,0.3-24.7,4.1-35.5,10.9c-4.9,3.1-9.4,6.7-13.4,10.9c-0.3,0.3-0.9,0.5-1.3,0.4c-13.1-4.4-26.5-5.7-40.2-5.8
			c-13.1-0.1-26.1,1.1-38.8,4.8c-1.6,0.5-3.4,1.7-4.8,1.4c-1.4-0.3-2.3-2.2-3.6-3.3c-9.9-9.2-21.3-15.5-34.7-18
			c-3.7-0.7-7.5-0.8-11.3-1.2c-0.8-0.1-1.3,0.2-1.7,0.9c-3.8,5.3-5.9,11.3-6.9,17.7c-1.3,8.7-0.8,17.4,2,25.8c0.8,2.3,1.9,4.4,3,6.8
			c-0.1,0.1-0.4,0.4-0.7,0.8c-11.7,12.5-18.6,27.4-21,44.3c-1.7,11.8-1.5,23.6,1.5,35.2c4.5,17.6,14.5,31.5,29.1,42.2
			c11.3,8.2,24,13.6,37.5,17.1c4.2,1.1,8.5,1.9,12.8,2.9c0.2,0.1,0.5,0.1,0.9,0.2c-1.9,3.5-2.9,7.3-3.3,11.2
			c-0.3,3.4-0.5,6.9-0.6,10.3c0,1.1-0.4,1.6-1.4,1.9c-6.5,2.2-13.3,2.6-20.1,2c-6.3-0.6-12.3-2.4-17.9-5.6c-5.2-3-9.3-7.1-12.5-12.2
			c-5.4-8.6-12.9-14.5-23.1-16.6c-3-0.6-6-0.7-8.9,0.4c-2.5,0.9-3,2.5-1.4,4.5c1.1,1.4,2.4,2.7,3.9,3.7c6.5,4.3,10.9,10.3,14.5,17
			c1.2,2.2,2.3,4.4,3.3,6.7c3.4,8.5,9.3,14.9,16.9,19.8c9.4,6.1,19.9,8.4,31,8c5.2-0.2,10.3-1,15.6-1.5c0,0,0.1,0.3,0.1,0.7
			c0,7.3,0.1,14.5,0,21.8c-0.1,5.6-2.7,9.9-7.5,12.7c-2.6,1.5-5.4,1.7-8.3,0.7c-40.4-14.3-71.5-39.9-93.1-77
			c-10.5-18-17.1-37.4-20.3-57.9c-2.3-14.4-2.7-28.9-1.2-43.4c3.5-33.6,15.8-63.7,37.1-90C64.3,43,91.3,24.5,123.6,14.1
			c20.9-6.7,42.3-9.2,64.2-7.6c34.8,2.5,66.1,14.5,93.5,36.1c30.8,24.3,50.9,55.7,60.3,93.9c4.1,16.6,5.6,33.5,4.4,50.5
			c-3.1,43.9-20.4,81.3-51.9,112.1c-18,17.5-39,30.2-62.6,38.5c-5.1,1.8-9.6-0.2-12.4-3.4c-2.6-3-4-6.4-4-10.4c0-17.1,0-34.1,0-51.2
			c0-4.8-0.1-9.6-1.3-14.2C213.2,256.2,212.3,254.3,211.5,252.2z"/>
	</g>
</g>
<g id="Lynx">
	<g>
		<path class="st4" d="M284.5,341.6c-16.2,0-31.6-6.2-43.3-17.6L129.1,218.7c-4.4-4.4-8.2-9.5-11.1-15.1
			c-12.7-24.1-8.2-53.2,11.1-72.5l0.9-0.9L241.1,25.8c11.6-11.3,27-17.6,43.3-17.6c16.6,0,32.1,6.4,43.8,18.2
			c24.1,24.1,24.1,63.4,0,87.6l-0.2,0.2l-63.3,60.8l63.6,61c24.1,24.1,24.1,63.4,0,87.6C316.6,335.2,301,341.6,284.5,341.6z"/>
	</g>
	<g>
		<path class="st5" d="M68,341.6c-16.6,0-32.1-6.4-43.8-18.2c-24.1-24.1-24.1-63.4,0-87.6l0.2-0.2l63.3-60.8l-63.6-61
			C0,89.8,0,50.5,24.1,26.4C35.9,14.6,51.4,8.2,67.9,8.2c16.2,0,31.6,6.2,43.3,17.6l112.2,105.3c4.4,4.4,8.2,9.5,11.1,15.1
			c12.7,24.1,8.2,53.2-11.1,72.5l-0.9,0.9L111.3,324.1C99.6,335.4,84.2,341.6,68,341.6z"/>
	</g>
	<path class="st6" d="M234.5,146.1c-2.9-5.6-6.7-10.7-11.1-15.1l-47.2-44.3l-46.3,43.5l-0.9,0.9c-19.3,19.3-23.7,48.5-11.1,72.5
		c2.9,5.6,6.7,10.7,11.1,15.1l47.2,44.3l46.3-43.5l0.9-0.9C242.7,199.4,247.2,170.3,234.5,146.1z"/>
</g>
</svg>
