<?xml version="1.0" encoding="utf-8"?>
<!-- Generator: Adobe Illustrator 25.2.1, SVG Export Plug-In . SVG Version: 6.00 Build 0)  -->
<svg version="1.1" xmlns="http://www.w3.org/2000/svg" xmlns:xlink="http://www.w3.org/1999/xlink" x="0px" y="0px"
	 viewBox="0 0 350.3 345.6" style="enable-background:new 0 0 350.3 345.6;" xml:space="preserve">
<style type="text/css">
	.st0{fill:#FFFFFF;}
	.st1{display:none;}
	.st2{display:inline;}
</style>
<g id="Mac">
	<path class="st0" d="M301.4,118.9c-12.5,8.5-22.4,18.7-28.7,32c-16.8,35.4-2.4,77.7,32.6,95.5c4,2.1,4.8,3.8,3.2,8.1
		c-8.7,23.8-22,45.8-39,64.6c-16.6,18.6-33.5,21.8-56.3,12c-4.9-2.2-10-4.1-15.1-5.7c-13.7-3.9-27.2-2.4-40.5,2.6
		c-8,3-15.9,6.5-24.2,8.1c-14,2.7-25.4-3.4-35.1-13.2c-13.6-13.9-24.9-29.7-33.7-47c-15.8-30.8-24.7-63.4-23.1-98.3
		c0.9-21.2,6.7-41.1,19.7-58.3c18.1-24,53.8-42.8,91.4-25.4c17.2,8,32.9,8.1,50.1,0c24.7-11.6,49.8-10.6,74.1,2.4
		C286.7,101.8,295.1,109.5,301.4,118.9z"/>
	<path class="st0" d="M240.8,7c5.8,30.7-24,77.2-64.4,75.3C166,53.4,207.3,5.2,240.8,7z"/>
</g>
<g id="Windows" class="st1">
	<g class="st2">
		<path class="st0" d="M326.7,330.2c-10.5-1.7-20.9-3.5-31.4-5c-43.2-6.1-86.3-12.2-129.5-18.2c-2.4-0.3-3.9-0.9-3.9-3.9
			c0.1-39.8,0-79.6,0-119.4c0-0.5,0.2-0.9,0.4-1.6c56.2,0,112.5,0,169.3,0c0,2.3,0,4.3,0,6.2c0,45.3,0,90.6,0,135.9c0,2,0.1,4,0.2,6
			C330,330.2,328.4,330.2,326.7,330.2z"/>
		<path class="st0" d="M331.2,165c-56.4,0-112.5,0-169,0c0-41,0-82.5,0-124.8c56.1-8.2,112.4-16.4,169-24.7
			C331.2,65.2,331.2,114.4,331.2,165z"/>
		<path class="st0" d="M145.6,304.4c-42.7-5.9-84.8-11.7-127.3-17.5c0-35.5,0-70.7,0-106.1c42.3,0,84.7,0,127.3,0
			C145.6,222.1,145.6,262.8,145.6,304.4z"/>
		<path class="st0" d="M145.5,166.2c-42.3,0-84.6,0-127.2,0c0-35.1,0-70.3,0-106.2c42.1-5.7,84.4-11.5,127.2-17.3
			C145.5,83.9,145.5,124.7,145.5,166.2z"/>
	</g>
</g>
<g id="Linux" class="st1">
	<g class="st2">
		<path class="st0" d="M304.5,281c-3.5,6.6-9.5,10.3-15.9,13.4c-11.4,5.5-21.3,12.6-30.2,21.9c-9.4,9.8-25.2,15.3-37.5,7.6
			c-4.3-2.7-7.2-7.8-10.7-11.8c-1-1.1-2.1-2.9-3.3-3.1c-9.5-0.9-19.1-2.3-28.6-2c-9.8,0.3-19.5,2.4-29.2,3.9
			c-1.6,0.2-3.3,1.4-4.3,2.7c-4.8,6.5-11.1,9.3-19.1,9.8c-11.4,0.8-21.2-3.7-31.4-7.6c-6.2-2.4-13-3.6-19.6-4.9
			c-5.5-1.1-11.2-1.3-16.6-2.6c-8.8-2.1-12.4-8.3-10.6-17.7c1.6-8.1,2.3-15.9,1.3-24.3c-1.5-12.1,1.7-17.4,13.5-21.1
			c9.1-2.8,12.9-10.5,18.8-16.4c0.6-0.6,0.7-2,0.6-2.9c-2.3-20.7,5.5-38.7,15.8-55.6c8.8-14.5,19.2-27.9,28.3-42.2
			c4.7-7.4,7.6-15.9,7.7-24.9c0.2-14.2-0.3-28.4,0.1-42.6c0.4-13.1,3.9-25.2,14.3-34.3c6.1-5.3,13.2-7.9,21-9.5
			c12.3-2.6,24-1.6,35.3,3.9c9.1,4.4,14.8,11.9,18.3,21.1c5.7,15.5,6.6,31.7,6.1,47.9c-0.3,10.8,0.7,21.3,6.5,30.5
			c5.5,8.6,11.7,16.7,18.1,24.7c12.2,15.1,22,31.4,27,50.3c2.9,10.9,3.2,22.2,0.2,33.3c-0.4,1.4-0.2,4.1,0.7,4.7
			c5.2,3.2,7.7,7.9,8.8,13.6c1.4,7.5,4.3,14.1,9.4,19.9c2.4,2.8,3.6,6.6,5.4,10C304.5,278.2,304.5,279.6,304.5,281z M111.4,221.1
			c-10.1-14.4-7.4-28.3-3.3-42.4c-2.3,4.7-4.3,9.4-5.6,14.3c-3.1,11.5-2.9,23.1,5.2,32.4c4.9,5.7,12.2,9.1,17.9,14.2
			c5.9,5.3,11.9,10.8,16.6,17c6.1,8.1,4.2,13.4-4.7,17.4c-0.5,0.2-0.9,1-1.2,1.4c4.2,7.8,10.1,13.2,18.4,16.1
			c17.8,6.1,34.6,3.3,50.6-5.5c3.9-2.1,8-4.6,8.8-9.8c1.1-8.1,2.3-16.2,3.3-24.2c1.2-9.5,1.8-19,9.8-26.1c2.6-2.3,4.2-5.9,6.6-8.5
			c1.7-1.9,3.9-4.3,6.1-4.6c9.9-1.2,18.6,2.3,25.9,8.7c2.7,2.3,4,6.3,5.9,9.4c1.7-7.6-0.5-10.1-18.4-20.5c1.9-14.2-0.1-27.7-9-39.6
			c5,12.1,8.9,24.2,3.5,37.3c-2.5,0-4.9,0-6.1,0c-4.3-11.7-8-22.9-12.5-33.9c-7.4-18.2-15.3-36.2-22.8-54.3c-1-2.5-1.6-5.2-2.3-7.8
			c-3.6,2.3-6.3,4.2-9.3,5.8c-4.1,2.3-8.4,4.4-12.5,6.6c-10.4,5.6-21.8,6.3-30.5-2.9c-2.1-2.2-5.1-3.7-7.9-5.6
			c-0.4,2.9-0.5,5.1-0.9,7.3c-3.2,17.5-10.7,33.5-18,49.6c-5.2,11.4-10.7,22.7-11.7,35.6C113,212.3,112.1,216.2,111.4,221.1z
			 M118.8,319.6c0.1-0.4,0.3-0.8,0.4-1.2c0.7,0.1,1.4,0.2,2,0.2c9.4,0.3,19.6-1.9,22.2-15c1.5-7.4-2.6-12.8-6.2-18.2
			c-5.5-8-11.7-15.4-17-23.5c-5.4-8.2-9.5-17.3-15.2-25.3c-7.6-10.7-17.2-10.2-24.7,0.6c-3.3,4.8-7.2,8.9-12.8,11.2
			c-2.5,1-4.9,2.3-7.5,3.2c-4.9,1.9-7.1,5.4-6.8,10.7c0.7,10.3,2.1,20.6-1.9,30.8c-1.6,4.2,1.5,8.5,6.1,9.8c4.9,1.4,9.9,2,14.8,3.2
			c8.5,2,17.1,3.8,25.5,6.3C105,314.4,111.8,317.1,118.8,319.6z M231.9,228.7c-5.6,3.6-7.6,8.8-8.4,14.3c-1.3,8.2-1.5,16.6-3,24.8
			c-1.9,10.1-4.8,20-7.1,30.1c-2.5,10.7,4.2,20.3,13.1,23.7c10.7,4,25.5-4.6,33.1-12.5c3.8-4,7.9-8,12.5-11
			c6.6-4.4,13.9-7.7,20.9-11.7c7.1-4,8.6-8.7,3.5-14.8c-6.4-7.7-10-16.3-12.1-25.9c-2.1-9.6-13.7-12.2-20.6-6.5
			c-2.2,1.8-4.6,3.5-7.1,4.9c-9.1,5.1-17.8,2.4-22.3-7.1C233.3,234.6,232.9,232.1,231.9,228.7z M167.5,83.8c-3.7,1.5-8,2.7-11.6,4.9
			c-4.3,2.7-7.9,6.4-12,9.4c-5.5,4.1-6.2,7.9-1.1,12.4c5.3,4.7,11.2,8.9,17,13c4.6,3.2,9.9,2.9,14.7,0.9c7.2-3,14.1-6.6,20.9-10.4
			c4.3-2.4,9.1-6.1,8.1-11.3c-0.6-3.1-4.9-6.2-8.2-8.1c-5.3-3-11-5.2-16.7-7.5C175.3,85.9,171.8,85.1,167.5,83.8z M193.3,90.4
			c6.6,2.8,6.7,2.7,8.9-4.2c1.8-5.5,1.7-11-0.4-16.3c-2.1-5.2-5.5-9.6-11.6-10c-8.8-0.6-16.2,7.3-16.7,16.9c-0.2,4.7,1.3,7,6,6.6
			c0.5-2.7,0.5-5.5,1.7-7.5c1.4-2.2,4-5,6.2-5.1c1.9-0.1,5.2,3,5.6,5.2C193.9,80.6,193.3,85.3,193.3,90.4z M243.6,216.5
			c-5.5-0.1-7.7,2.3-7.8,8.2c-0.1,7.6,4.3,13.8,9.8,13.8c6.1,0.1,14.1-5.9,14.3-10.7C260.1,223.1,250.8,216.6,243.6,216.5z
			 M156.9,83.8c3.7-0.6,5.5-2.9,4.4-6.1c-1.6-4.5-3.4-9.1-6.2-12.9c-2.5-3.4-6.4-3-9.6,0c-7.2,6.7-7.2,18.8,0.7,28.1
			c0.5-1.6,0.6-3.2,0.5-4.7c-0.2-3.7-0.7-7.5-0.5-11.2c0.1-1.2,2.1-2.8,3.4-3.1c1.2-0.2,3.2,0.9,3.9,2
			C154.9,78.2,155.7,81,156.9,83.8z"/>
		<path class="st0" d="M142.9,101.9c4.3,3.3,7.7,6.2,11.3,8.7c6.7,4.8,14,4.8,21.2,1.4c5.4-2.5,10.5-5.6,15.8-8.2
			c2.1-1.1,4.5-1.7,7.8-3c-0.7,2.1-0.7,3.2-1.2,3.5c-8.2,4-16.2,8.4-24.7,11.7c-10,3.8-25-2.1-30.1-11
			C142.7,104.5,142.9,103.7,142.9,101.9z"/>
	</g>
</g>
</svg>
