<?xml version="1.0" encoding="utf-8"?>
<!-- Generator: Adobe Illustrator 25.2.1, SVG Export Plug-In . SVG Version: 6.00 Build 0)  -->
<svg version="1.1" xmlns="http://www.w3.org/2000/svg" xmlns:xlink="http://www.w3.org/1999/xlink" x="0px" y="0px"
	 viewBox="0 0 292 56.5" style="enable-background:new 0 0 292 56.5;" xml:space="preserve">
<style type="text/css">
	.st0{fill:#FFFFFF;}
	.st1{fill:#B1C8D3;}
	.st2{fill:#88BDD8;}
</style>
<g id="Layer_1">
</g>
<g id="Layer_2">
	<g id="layer4">
		<path id="path4333" class="st0" d="M1.6,27.2c0,0-1.6-1.4-1.3-2.2c0.3-1,2.9-1.3,2.9-1.3l58-22.8c0,0,2.1-0.7,2.9-0.2
			c1,0.5,1.7,2.9,1.7,2.9L54.3,54.3c0,0-0.6,0.9-1.1,1.1c-0.8,0.3-2.6-0.2-2.6-0.2L35.3,43.4L25.7,53l-2.6-2l-5.7-18.1L1.6,27.2z"/>
	</g>
	<g id="layer5">
		<path id="path4336" class="st1" d="M17.7,32.9L53.1,10l1.3,0.4l-0.5,1l-28,25.3L24.6,52l-1.6-1.1L17.7,32.9z"/>
		<path id="path4338" class="st2" d="M26.2,36.8c0,0.4,8.9,6.9,8.9,6.9L26,52.9l-1.4-1.3L26.2,36.8z"/>
	</g>
	<g id="layer1" transform="translate(2.0203051,-1001.8571)">
		<path id="path3037" class="st0" d="M182.2,1055.4c-1.5-0.3-2.8-0.7-4.2-1.1c0-1.5,0.1-3,0.4-4.4c12.7,3.7,15.6,1.3,15.8-6.8v-1.9
			l-1.6,1.5c-2.1,1.9-4.2,2.6-7.3,2.4c-6.2-0.4-9.6-4.9-9.6-12.7c0-4.6,1-7.6,3.6-10.3c3.4-3.7,9.3-4.4,13.4-1.6l1.5,1v-1.1v-1.1
			l2.7,0.1l2.7,0.1l0.1,10.5c0.1,16.3-0.3,19.5-3.4,22.6C192.1,1056,187.9,1056,182.2,1055.4L182.2,1055.4z M190.2,1039.4
			c0.7-0.4,1.9-1.2,2.6-1.9l1.3-1.2v-5.1v-5.1l-0.9-0.8c-3.2-2.7-6.7-2.9-9.4-0.6c-1.7,1.5-2.5,3.8-2.5,7.4c0,4.3,0.9,6.5,3.2,7.6
			C186.1,1040.4,188.4,1040.3,190.2,1039.4L190.2,1039.4z M113.5,1042.8c-3.1-3-4.6-7.6-3.9-12.5c0.5-4,1.7-6.6,4.1-8.8
			c1.9-1.7,3.7-2.5,6.5-2.7c6.8-0.5,10.9,4.2,10.9,12.6l0,2.2c-5.2,0.1-11.2-0.3-16.1,0.4c0.7,4.5,4,7.9,8.5,7.9
			c2.7,0,4.7-0.7,7.3-1.2l0.1,4.1c0,0-6.1,1.4-8.4,1.4C118.9,1046.3,115.5,1044.7,113.5,1042.8L113.5,1042.8z M125.6,1028.5
			c0-2.6-1.7-5-3.7-5.4c-3.2-0.6-5.7,1.3-6.5,4.9l-0.3,1.3h5.3h5.3L125.6,1028.5L125.6,1028.5z M153.2,1042.8
			c-3.1-3-4.6-7.6-3.9-12.5c0.5-4,1.7-6.6,4.1-8.8c1.9-1.7,3.7-2.5,6.5-2.7c6.8-0.5,10.9,4.2,10.9,12.6l0,2.2
			c-5.6-0.1-10.9,0-16.2-0.1c0.3,5.3,3.7,8.7,8.6,8.4c2.7,0.1,5.1-0.7,7.3-1.2c0.5,0.3,0.4,3.7-0.1,4.1c-0.7,0.6-5.9,1.5-8.2,1.5
			C158.6,1046.3,155.2,1044.7,153.2,1042.8L153.2,1042.8z M165.3,1028.5c0-2.6-1.7-5-3.7-5.4c-3.2-0.6-5.7,1.3-6.5,4.9l-0.3,1.3h5.3
			h5.3L165.3,1028.5L165.3,1028.5z M228.9,1045.9c-3.8-1.4-5.7-5.5-4.4-9.6c0.5-1.7,2.4-3.7,4.3-4.6c1.8-0.9,5.5-1.6,8.1-1.7l1.7,0
			v-2.1c-0.1-5.8-4.7-5.4-9.2-3.8c-1.2,0.4-2.8,0.8-3.1,0.9c0-1.4-0.2-2.3-0.2-4.4l2.5-0.8c1.7-0.5,3.5-0.8,5.5-1
			c4.9-0.3,7.5,0.8,9,3.7c0.6,1.2,0.7,1.7,0.8,9.8c0.2,8.5,0.2,8.5,0.9,9.3c0.4,0.5,2,0.9,2.5,0.9c0,1.8,0.2,1.7,0,3.4
			c-0.7,0.2-3.1,0.4-3.9,0.4c-1.7-0.1-2.8-0.9-3.6-2.4l-0.4-0.8l-1.1,0.9C235.9,1046,231.5,1046.9,228.9,1045.9L228.9,1045.9z
			 M235.3,1041.4c0.7-0.2,1.7-0.7,2.3-1.1l1.1-0.7v-3.1v-3.1h-1.3c-3.1,0-6.7,1.6-7.4,3.2c-0.8,1.8-0.1,4,1.5,4.8
			C232.7,1041.9,233.7,1041.9,235.3,1041.4L235.3,1041.4z M89.6,1030v-15.8h-6.2h-6.2v-2.1v-2.1h15.3h15.3v2.1v2.1h-6.2h-6.2v15.8
			v15.8h-2.9h-2.9V1030z M137.8,1026.8v-18.9h2.7h2.7v18.9v18.9h-2.7h-2.7V1026.8z M207.2,1032.5v-13.2c1.8,0.1,3.6,0,5.4,0
			c0,1.1,0,2.2,0.1,3.3c2.5-2.7,5.1-3.4,7.3-3.7l2-0.2v2.6v2.6c-3.4-1-7,1.3-8.6,3.4c-0.6,0.9-0.7,1.3-0.8,9.5l-0.2,8.6
			c-1.8,0.1-3.5,0.1-5.3,0.2L207.2,1032.5L207.2,1032.5z M252.3,1032.5v-13.2c1.8,0,3.6,0,5.5,0c0,1.2,0,3.3,0,4.5
			c2.3-2.6,5.1-5,8.2-5c3.8-0.1,5.3,2.3,7,5c4.7-5.3,13.4-6.9,16-0.5c0.3,8.7,0.1,11.9,0,22.3c-1.8,0.1-3.4,0-5.1,0
			c0.1-6.7,0-14.4-0.2-20.7c-0.7-1.3-1.9-2.4-4.1-1.8c-2.2,0.6-4.1,2.2-6.1,4.6c0,5.9,0.1,12,0.1,17.8h-2.7h-2.7
			c-0.1-6.9-0.1-13.8-0.2-20.7c-1.1-1.3-2-2-4-1.5c-2.1,0.5-4.8,2.1-6.1,4.7c0,5.8-0.1,11.6-0.1,17.5c-1.8,0-3.6,0-5.4,0
			C252.3,1041.3,252.3,1036.9,252.3,1032.5L252.3,1032.5z"/>
	</g>
</g>
</svg>
