<?xml version="1.0" encoding="utf-8"?>
<!-- Generator: Adobe Illustrator 25.2.1, SVG Export Plug-In . SVG Version: 6.00 Build 0)  -->
<svg version="1.1" id="Layer_1" xmlns="http://www.w3.org/2000/svg" xmlns:xlink="http://www.w3.org/1999/xlink" x="0px" y="0px"
	 viewBox="0 0 272.4 106.3" style="enable-background:new 0 0 272.4 106.3;" xml:space="preserve">
<style type="text/css">
	.st0{fill:#2B378B;}
	.st1{fill:#0572BA;}
	.st2{fill:#90C740;}
</style>
<g>
	<path class="st0" d="M120.2,31.3h10.7v37h24.3v9.3h-35.1V31.3z"/>
	<path class="st0" d="M179.5,42.7h11l-14.4,36.3c-2.9,7.2-5.9,9.9-12.3,9.9c-3.8,0-6.7-0.9-9.4-2.4l3.6-7.3c1.4,0.8,3.1,1.4,4.5,1.4
		c1.8,0,2.8-0.5,3.7-2.3l-14.6-35.6h11.2l8.5,24.1L179.5,42.7z"/>
	<path class="st0" d="M192.6,42.7h10.6v5c2.4-3,5.6-5.7,10.9-5.7c8,0,12.7,5,12.7,13.2v22.9h-10.6V58.4c0-4.8-2.4-7.2-6.4-7.2
		s-6.6,2.4-6.6,7.2v19.8h-10.6V42.7z"/>
	<path class="st0" d="M247.4,53.1l7-10.4h11.1l-12.6,17.3l13.2,18.1h-11.4l-7.5-11l-7.5,11h-11.1l13.1-18L229,42.7h11.4L247.4,53.1z
		"/>
</g>
<g>
	<path class="st1" d="M82.1,98.8c-4.5,0-8.7-1.7-11.9-4.8L39.5,65.1c-1.2-1.2-2.2-2.6-3.1-4.1c-3.5-6.6-2.3-14.6,3-19.9l0.2-0.2
		l30.5-28.6c3.2-3.1,7.4-4.8,11.9-4.8c4.5,0,8.8,1.8,12,5c6.6,6.6,6.6,17.4,0,24L94,36.4L76.7,53.1l17.4,16.7c6.6,6.6,6.6,17.4,0,24
		C90.9,97.1,86.6,98.8,82.1,98.8z"/>
</g>
<g>
	<path class="st2" d="M22.7,98.8c-4.5,0-8.8-1.8-12-5c-6.6-6.6-6.6-17.4,0-24l0.1-0.1l17.4-16.7L10.7,36.4c-6.6-6.6-6.6-17.4,0-24
		c3.2-3.2,7.5-5,12-5c4.5,0,8.7,1.7,11.9,4.8l30.8,28.9c1.2,1.2,2.2,2.6,3.1,4.1c3.5,6.6,2.2,14.6-3,19.9l-0.2,0.2L34.6,94.1
		C31.4,97.1,27.2,98.8,22.7,98.8z"/>
</g>
<path class="st0" d="M68.4,45.3c-0.8-1.5-1.8-2.9-3.1-4.1L52.4,29L39.7,40.9l-0.2,0.2c-5.3,5.3-6.5,13.3-3,19.9
	c0.8,1.5,1.8,2.9,3.1,4.1l12.9,12.1l12.7-11.9l0.2-0.2C70.6,59.9,71.9,51.9,68.4,45.3z"/>
</svg>
