<svg width="540" height="149" viewBox="0 0 540 149" fill="none" xmlns="http://www.w3.org/2000/svg">
<g clip-path="url(#clip0)">
<path d="M31.51 60C31.51 58.7263 31.8877 57.4812 32.5953 56.4221C33.303 55.3631 34.3087 54.5376 35.4855 54.0502C36.6623 53.5628 37.9571 53.4353 39.2064 53.6837C40.4556 53.9322 41.6031 54.5456 42.5037 55.4462C43.4044 56.3469 44.0178 57.4944 44.2662 58.7436C44.5147 59.9929 44.3872 61.2877 43.8998 62.4645C43.4123 63.6412 42.5869 64.647 41.5279 65.3547C40.4688 66.0623 39.2237 66.44 37.95 66.44C37.1039 66.4413 36.2659 66.2756 35.4839 65.9525C34.702 65.6293 33.9915 65.155 33.3933 64.5567C32.795 63.9584 32.3207 63.248 31.9975 62.466C31.6743 61.6841 31.5087 60.8461 31.51 60V60ZM29.3 98.12C24.2214 93.9537 19.5716 89.2906 15.42 84.2C19.6675 79.4729 24.2855 75.0923 29.23 71.1C29.7072 70.6782 30.0023 70.0877 30.053 69.4528C30.1038 68.8179 29.9063 68.188 29.5021 67.6957C29.0979 67.2034 28.5186 66.8871 27.8859 66.8133C27.2532 66.7395 26.6166 66.914 26.11 67.3C21.251 71.2356 16.6917 75.5275 12.47 80.14C8.22998 73.71 6.85998 68.18 8.85998 64.63C10.86 61.08 16.3 59.54 24.21 60C24.8517 60.0223 25.4767 59.7928 25.9516 59.3606C26.4264 58.9283 26.7134 58.3275 26.7512 57.6865C26.7891 57.0455 26.5748 56.4151 26.1542 55.93C25.7335 55.4448 25.1399 55.1434 24.5 55.09C14.5 54.5 7.60998 56.94 4.59998 62.16C2.68998 65.45 1.59998 71.35 7.04998 80.71C7.67998 81.79 8.38998 82.9 9.16998 84.01C1.54998 93.6 -1.02002 101.88 2.24998 107.54C4.70998 111.8 10.03 114 17.86 114C20.7613 113.975 23.6565 113.728 26.52 113.26C27.1543 113.148 27.7194 112.792 28.094 112.268C28.4685 111.744 28.6226 111.094 28.5231 110.457C28.4235 109.821 28.0784 109.249 27.5617 108.864C27.0451 108.48 26.3982 108.313 25.76 108.4C15.67 109.97 8.66998 108.77 6.54998 105.1C4.71998 101.93 6.22998 95.98 12.27 88.1C16.4525 93.1261 21.0998 97.7466 26.15 101.9C26.5912 102.267 27.1463 102.468 27.72 102.47C28.226 102.471 28.7201 102.316 29.1348 102.026C29.5496 101.736 29.8648 101.325 30.0375 100.85C30.2103 100.374 30.2322 99.8569 30.1002 99.3684C29.9682 98.8798 29.6888 98.4439 29.3 98.12ZM36.44 71.25C35.7884 71.2526 35.1642 71.5127 34.7034 71.9734C34.2426 72.4342 33.9826 73.0584 33.98 73.71V74.17C33.98 80.86 34.3 87.49 34.92 93.87C34.9773 94.4774 35.2591 95.0416 35.7104 95.4522C36.1616 95.8628 36.7499 96.0902 37.36 96.09H37.6C37.9262 96.0649 38.2441 95.975 38.5351 95.8256C38.8262 95.6761 39.0845 95.4701 39.2949 95.2197C39.5054 94.9692 39.6638 94.6792 39.7608 94.3668C39.8578 94.0543 39.8915 93.7256 39.86 93.4C39.2 87.17 38.86 80.7 38.86 74.17V73.72C38.8653 73.0719 38.6137 72.4481 38.1601 71.9852C37.7065 71.5223 37.088 71.2579 36.44 71.25ZM73.38 90.17C66.3556 94.1091 59.099 97.6189 51.65 100.68C51.0453 100.925 50.5628 101.401 50.3087 102.002C50.0546 102.603 50.0497 103.28 50.295 103.885C50.5403 104.49 51.0158 104.972 51.6169 105.226C52.2179 105.48 52.8953 105.485 53.5 105.24C61.1328 102.1 68.5695 98.5037 75.77 94.47C76.331 94.1483 76.7428 93.6186 76.9163 92.9955C77.0897 92.3724 77.0107 91.7061 76.6965 91.1408C76.3823 90.5755 75.8581 90.1567 75.2374 89.975C74.6167 89.7933 73.9494 89.8634 73.38 90.17ZM129.72 34C126.02 27.58 116.05 25.9 100.89 29.15C95.2478 30.3804 89.6978 32.001 84.28 34C83.3256 29.7753 82.1202 25.6112 80.67 21.53C75.58 7.44 68.86 0 61.22 0C47.55 0 39.22 23.67 35.96 45.82C35.8645 46.4658 36.0295 47.1231 36.4186 47.6472C36.8078 48.1714 37.3892 48.5195 38.035 48.615C38.6808 48.7105 39.3381 48.5455 39.8622 48.1564C40.3864 47.7672 40.7345 47.1858 40.83 46.54C44.42 22 52.86 4.92 61.22 4.92C66.45 4.92 71.85 11.58 76.04 23.19C77.5007 27.3043 78.703 31.5058 79.64 35.77C70.5484 39.4461 61.7295 43.7637 53.25 48.69C51.8 49.52 50.31 50.41 48.82 51.31C48.5435 51.4774 48.3028 51.6977 48.1115 51.9582C47.9202 52.2186 47.782 52.5142 47.705 52.8281C47.6279 53.142 47.6134 53.4679 47.6623 53.7874C47.7112 54.1069 47.8225 54.4136 47.99 54.69C48.1574 54.9664 48.3777 55.2072 48.6381 55.3985C48.8986 55.5898 49.1942 55.7279 49.5081 55.805C49.8219 55.8821 50.1479 55.8966 50.4674 55.8477C50.7868 55.7988 51.0935 55.6874 51.37 55.52C52.83 54.63 54.29 53.76 55.71 52.95C63.7266 48.2861 72.0565 44.183 80.64 40.67C82.4338 50.6195 83.3971 60.7009 83.52 70.81C83.5305 71.4555 83.7943 72.071 84.2545 72.5237C84.7147 72.9764 85.3344 73.2301 85.98 73.23V73.23C86.303 73.2248 86.6219 73.156 86.9184 73.0275C87.2149 72.8991 87.4831 72.7134 87.7078 72.4813C87.9326 72.2491 88.1094 71.975 88.2281 71.6745C88.3469 71.374 88.4053 71.0531 88.4 70.73C88.2698 60.0367 87.2227 49.3743 85.27 38.86C106.37 31.06 122.02 30.51 125.42 36.41C127.28 39.64 125.64 45.14 120.8 51.9C115.54 59.24 107.06 67.36 96.27 75.4C95.8558 75.7097 95.5498 76.1421 95.3954 76.6357C95.2411 77.1293 95.2462 77.659 95.4101 78.1495C95.5739 78.64 95.8882 79.0664 96.3083 79.3681C96.7284 79.6698 97.2328 79.8314 97.75 79.83C98.277 79.83 98.7897 79.658 99.21 79.34C110.4 71.01 119.21 62.51 124.8 54.77C129.11 48.81 133.42 40.36 129.72 34ZM99.35 90C98.8553 89.5743 98.2119 89.3626 97.5611 89.4113C96.9104 89.4601 96.3056 89.7654 95.88 90.26C95.4543 90.7546 95.2426 91.3981 95.2913 92.0489C95.3401 92.6996 95.6453 93.3043 96.14 93.73C111.2 106.73 118.85 119.67 115.14 126.03C112.6 130.43 104.62 131.82 93.25 129.86C88.9954 129.107 84.7985 128.057 80.69 126.72C83.8027 117.617 85.9118 108.201 86.98 98.64C87.0347 98.0054 86.8411 97.3743 86.44 96.8796C86.0388 96.3848 85.4614 96.0649 84.8293 95.9872C84.1971 95.9094 83.5594 96.0799 83.0504 96.4628C82.5413 96.8457 82.2006 97.4111 82.1 98.04C81.0802 107.253 79.0548 116.327 76.06 125.1C67.6027 121.964 59.4296 118.11 51.63 113.58C51.0659 113.267 50.4014 113.188 49.7798 113.361C49.1581 113.533 48.629 113.942 48.3064 114.501C47.9838 115.06 47.8936 115.723 48.0551 116.347C48.2166 116.972 48.617 117.508 49.17 117.84C57.177 122.485 65.5637 126.443 74.24 129.67C73.97 130.27 73.7 130.86 73.43 131.43C69.7 139.17 65.36 143.43 61.22 143.43C55.22 143.43 49.07 134.7 44.74 120.09C44.6648 119.763 44.5234 119.455 44.3246 119.184C44.1258 118.914 43.8737 118.687 43.5839 118.517C43.2941 118.348 42.9727 118.239 42.6394 118.199C42.3062 118.158 41.9682 118.187 41.6462 118.282C41.3242 118.377 41.0251 118.537 40.7672 118.751C40.5094 118.966 40.2983 119.232 40.1469 119.532C39.9955 119.831 39.907 120.159 39.8869 120.494C39.8668 120.829 39.9155 121.164 40.03 121.48C45.15 138.81 52.68 148.35 61.22 148.35C67.44 148.35 73.22 143.24 77.86 133.57C78.22 132.83 78.56 132.06 78.86 131.28C83.2885 132.73 87.8128 133.87 92.4 134.69C95.6644 135.279 98.9729 135.591 102.29 135.62C110.74 135.62 116.68 133.18 119.4 128.47C124.55 119.6 117.05 105.21 99.35 90ZM76.54 73.77L74.98 72.86C67.6098 68.5861 59.9202 64.8884 51.98 61.8C51.3738 61.5766 50.704 61.6006 50.1154 61.8669C49.5267 62.1332 49.0665 62.6203 48.834 63.2231C48.6016 63.8259 48.6156 64.496 48.873 65.0885C49.1305 65.6811 49.6107 66.1486 50.21 66.39C57.9137 69.3826 65.3729 72.9701 72.52 77.12L74.03 78.01C74.4095 78.2312 74.8407 78.3485 75.28 78.35C75.8208 78.3527 76.3474 78.1771 76.7783 77.8503C77.2093 77.5236 77.5206 77.064 77.664 76.5426C77.8075 76.0211 77.7751 75.467 77.5719 74.9658C77.3687 74.4646 77.006 74.0443 76.54 73.77V73.77ZM45.86 107.29C45.86 106.018 45.4829 104.775 44.7763 103.718C44.0698 102.66 43.0656 101.836 41.8906 101.349C40.7157 100.863 39.4229 100.735 38.1756 100.984C36.9283 101.232 35.7825 101.844 34.8833 102.743C33.984 103.643 33.3716 104.788 33.1235 106.036C32.8754 107.283 33.0028 108.576 33.4894 109.751C33.9761 110.926 34.8003 111.93 35.8577 112.636C36.9151 113.343 38.1582 113.72 39.43 113.72C41.1353 113.72 42.7708 113.043 43.9767 111.837C45.1825 110.631 45.86 108.995 45.86 107.29V107.29ZM92.44 84.58C92.4439 83.305 92.0694 82.0576 91.3637 80.9957C90.658 79.9338 89.653 79.1052 88.476 78.615C87.2991 78.1248 86.003 77.995 84.7522 78.2421C83.5014 78.4891 82.352 79.1019 81.4498 80.0027C80.5475 80.9036 79.933 82.0519 79.684 83.3024C79.435 84.5528 79.5628 85.849 80.0512 87.0268C80.5395 88.2045 81.3665 89.2108 82.4273 89.9181C83.4881 90.6254 84.735 91.002 86.01 91C87.7136 91 89.3476 90.3239 90.5531 89.1202C91.7587 87.9165 92.4373 86.2836 92.44 84.58V84.58Z" fill="url(#paint0_linear)"/>
<path fill-rule="evenodd" clip-rule="evenodd" d="M410.97 48.24C427.73 48.24 439.81 60.47 439.81 75.52C439.81 90.57 427.73 102.8 410.97 102.8H393.97C393.514 102.8 393.076 102.619 392.754 102.296C392.431 101.974 392.25 101.536 392.25 101.08V50C392.25 49.5438 392.431 49.1063 392.754 48.7838C393.076 48.4612 393.514 48.28 393.97 48.28L410.97 48.24ZM403.17 91.89H410.97C421.1 91.89 428.12 85.26 428.12 75.52C428.12 65.78 421.12 59.15 410.97 59.15H403.17V91.89Z" fill="url(#paint1_linear)"/>
<path d="M482.62 50V57.47C482.615 57.6959 482.565 57.9185 482.474 58.1252C482.383 58.3319 482.251 58.5186 482.088 58.6746C481.925 58.8307 481.732 58.9529 481.521 59.0345C481.311 59.1161 481.086 59.1553 480.86 59.15H456.11V68.89H473.86C474.316 68.89 474.754 69.0712 475.076 69.3938C475.399 69.7163 475.58 70.1538 475.58 70.61V78.09C475.58 78.5462 475.399 78.9837 475.076 79.3062C474.754 79.6288 474.316 79.81 473.86 79.81H456.11V91.89H481.68C482.136 91.89 482.574 92.0712 482.896 92.3938C483.219 92.7163 483.4 93.1538 483.4 93.61V101.08C483.4 101.536 483.219 101.974 482.896 102.296C482.574 102.619 482.136 102.8 481.68 102.8H446.92C446.464 102.8 446.026 102.619 445.704 102.296C445.381 101.974 445.2 101.536 445.2 101.08V50C445.2 49.5438 445.381 49.1063 445.704 48.7838C446.026 48.4612 446.464 48.28 446.92 48.28H480.92C481.373 48.2853 481.805 48.4688 482.123 48.7908C482.442 49.1128 482.62 49.5473 482.62 50Z" fill="url(#paint2_linear)"/>
<path d="M513.8 65L502.74 49C502.579 48.7738 502.366 48.5901 502.119 48.4647C501.872 48.3392 501.597 48.2758 501.32 48.28H491.94C491.624 48.2799 491.314 48.3669 491.044 48.5315C490.774 48.696 490.555 48.9318 490.41 49.2129C490.265 49.4939 490.201 49.8094 490.224 50.1247C490.247 50.4399 490.356 50.7428 490.54 51L507.21 74L488.21 100.11C488.023 100.367 487.912 100.671 487.887 100.988C487.863 101.305 487.927 101.622 488.072 101.905C488.217 102.188 488.437 102.425 488.709 102.59C488.98 102.755 489.292 102.841 489.61 102.84H498.99C499.266 102.841 499.539 102.774 499.784 102.647C500.03 102.52 500.241 102.336 500.4 102.11L513.8 82.97L527.2 102.11C527.359 102.336 527.57 102.52 527.816 102.647C528.061 102.774 528.334 102.841 528.61 102.84H537.99C538.307 102.84 538.618 102.752 538.888 102.586C539.158 102.42 539.377 102.183 539.521 101.9C539.664 101.618 539.727 101.301 539.702 100.985C539.678 100.669 539.566 100.367 539.38 100.11L520.43 74L537.05 51C537.243 50.7445 537.36 50.4399 537.388 50.121C537.417 49.8021 537.355 49.4817 537.21 49.1962C537.065 48.9107 536.843 48.6716 536.569 48.506C536.295 48.3405 535.98 48.2553 535.66 48.26H526.27C525.992 48.2589 525.719 48.3257 525.473 48.4547C525.227 48.5837 525.017 48.7709 524.86 49L513.8 65Z" fill="url(#paint3_linear)"/>
<path d="M275.25 62.94C278.2 61.0489 281.616 60.0106 285.12 59.94C291.98 59.94 296.7 62.09 299.7 65.52C303.473 62.0952 308.338 60.1183 313.43 59.94C326.3 59.94 331.88 67.24 331.88 78.82V99.82C331.88 100.046 331.835 100.27 331.749 100.478C331.663 100.687 331.536 100.877 331.376 101.036C331.216 101.196 331.027 101.323 330.818 101.409C330.61 101.496 330.386 101.54 330.16 101.54H323.64C323.415 101.54 323.191 101.495 322.983 101.409C322.775 101.322 322.586 101.195 322.427 101.036C322.268 100.876 322.143 100.686 322.057 100.477C321.972 100.269 321.929 100.045 321.93 99.82V79.89C321.93 73.03 318.93 69.51 313.09 69.51C311.293 69.5404 309.522 69.9365 307.883 70.6741C306.245 71.4117 304.774 72.4753 303.56 73.8V99.8C303.56 100.254 303.38 100.69 303.06 101.013C302.739 101.335 302.304 101.517 301.85 101.52H295.33C294.874 101.52 294.436 101.339 294.114 101.016C293.791 100.694 293.61 100.256 293.61 99.8V79.89C293.61 73.03 290.61 69.51 284.77 69.51C282.975 69.5395 281.204 69.9352 279.567 70.6728C277.93 71.4105 276.461 72.4746 275.25 73.8V99.8C275.25 100.256 275.069 100.694 274.746 101.016C274.424 101.339 273.986 101.52 273.53 101.52H267.01C266.554 101.52 266.116 101.339 265.794 101.016C265.471 100.694 265.29 100.256 265.29 99.8V62.93C265.29 62.7046 265.335 62.4814 265.421 62.2733C265.508 62.0652 265.635 61.8762 265.794 61.7173C265.954 61.5584 266.144 61.4326 266.353 61.3473C266.561 61.2619 266.785 61.2187 267.01 61.22H273.53C273.986 61.22 274.424 61.4012 274.746 61.7238C275.069 62.0463 275.25 62.4838 275.25 62.94Z" fill="white"/>
<path d="M215.86 94.16C215.859 93.8892 215.794 93.6225 215.671 93.3816C215.547 93.1406 215.368 92.9323 215.149 92.7734C214.93 92.6146 214.676 92.5097 214.409 92.4674C214.141 92.4251 213.868 92.4466 213.61 92.53C212.201 92.9676 210.735 93.1901 209.26 93.19C205.86 93.19 202.86 91 202.86 84.1V71.23H214.19C214.637 71.217 215.062 71.03 215.374 70.7089C215.686 70.3877 215.86 69.9576 215.86 69.51V62.91C215.86 62.4556 215.68 62.0196 215.36 61.6973C215.039 61.375 214.604 61.1926 214.15 61.19H202.86V52.61C202.86 52.1538 202.679 51.7163 202.356 51.3938C202.034 51.0712 201.596 50.89 201.14 50.89H194.54C194.091 50.9004 193.663 51.0863 193.35 51.4077C193.036 51.7291 192.86 52.1607 192.86 52.61V61.19H187.28C186.826 61.1926 186.391 61.375 186.07 61.6973C185.75 62.0196 185.57 62.4556 185.57 62.91V69.51C185.57 69.9644 185.75 70.4004 186.07 70.7227C186.391 71.045 186.826 71.2274 187.28 71.23H192.86V85C192.86 96.15 198.44 102.84 209.34 102.84C211.166 102.775 212.975 102.469 214.72 101.93C215.074 101.823 215.383 101.604 215.603 101.307C215.823 101.01 215.941 100.65 215.94 100.28L215.86 94.16Z" fill="white"/>
<path d="M239.44 59.9C235.196 59.8941 231.046 61.147 227.515 63.5004C223.983 65.8537 221.229 69.2017 219.601 73.1206C217.973 77.0396 217.544 81.3534 218.368 85.5163C219.193 89.6791 221.233 93.504 224.232 96.5068C227.231 99.5096 231.053 101.556 235.214 102.386C239.376 103.216 243.69 102.793 247.612 101.17C251.533 99.5475 254.885 96.7982 257.243 93.2701C259.601 89.742 260.86 85.5937 260.86 81.35C260.86 75.6663 258.604 70.2149 254.588 66.1932C250.572 62.1714 245.124 59.9079 239.44 59.9V59.9ZM239.44 93.18C237.101 93.178 234.814 92.4825 232.87 91.1814C230.926 89.8803 229.411 88.032 228.518 85.8702C227.624 83.7084 227.391 81.3301 227.849 79.036C228.306 76.7418 229.434 74.6349 231.088 72.9814C232.743 71.3279 234.851 70.2022 237.146 69.7466C239.44 69.2909 241.818 69.5258 243.979 70.4215C246.141 71.3171 247.988 72.8334 249.287 74.7786C250.586 76.7239 251.28 79.0107 251.28 81.35C251.28 82.9044 250.974 84.4435 250.379 85.8795C249.783 87.3154 248.911 88.62 247.812 89.7186C246.712 90.8173 245.407 91.6884 243.97 92.2824C242.534 92.8763 240.994 93.1813 239.44 93.18V93.18Z" fill="white"/>
<path d="M347.7 50.715C347.7 47.8569 345.383 45.54 342.525 45.54C339.667 45.54 337.35 47.8569 337.35 50.715C337.35 53.5731 339.667 55.89 342.525 55.89C345.383 55.89 347.7 53.5731 347.7 50.715Z" fill="white"/>
<path d="M345.72 61.19H339.21C338.26 61.19 337.49 61.9601 337.49 62.91V99.8C337.49 100.75 338.26 101.52 339.21 101.52H345.72C346.67 101.52 347.44 100.75 347.44 99.8V62.91C347.44 61.9601 346.67 61.19 345.72 61.19Z" fill="white"/>
<path d="M179.86 61.19H173.34C172.884 61.19 172.446 61.3712 172.124 61.6938C171.801 62.0163 171.62 62.4538 171.62 62.91V63.24C168.377 61.1813 164.64 60.0315 160.8 59.9106C156.96 59.7897 153.159 60.7023 149.792 62.5528C146.426 64.4034 143.618 67.1241 141.662 70.4307C139.707 73.7373 138.675 77.5084 138.675 81.35C138.675 85.1916 139.707 88.9627 141.662 92.2693C143.618 95.5759 146.426 98.2966 149.792 100.147C153.159 101.998 156.96 102.91 160.8 102.789C164.64 102.668 168.377 101.519 171.62 99.46V99.8C171.62 100.256 171.801 100.694 172.124 101.016C172.446 101.339 172.884 101.52 173.34 101.52H179.86C180.314 101.517 180.749 101.335 181.07 101.013C181.39 100.69 181.57 100.254 181.57 99.8V62.91C181.57 62.4556 181.39 62.0196 181.07 61.6973C180.749 61.375 180.314 61.1926 179.86 61.19ZM160.12 93.19C157.901 93.1888 155.727 92.5635 153.846 91.3853C151.965 90.2072 150.454 88.5238 149.484 86.5275C148.515 84.5311 148.127 82.3024 148.364 80.0958C148.601 77.8893 149.454 75.7939 150.826 74.0492C152.197 72.3045 154.032 70.9807 156.12 70.2291C158.208 69.4775 160.465 69.3284 162.634 69.7989C164.803 70.2693 166.796 71.3404 168.385 72.8896C169.974 74.4388 171.095 76.4038 171.62 78.56V84.16C170.989 86.741 169.507 89.0344 167.414 90.6707C165.32 92.307 162.737 93.1909 160.08 93.18L160.12 93.19Z" fill="white"/>
<path d="M384.86 93C384.858 92.7125 384.784 92.43 384.645 92.1785C384.505 91.927 384.305 91.7144 384.062 91.5602C383.82 91.406 383.542 91.3151 383.255 91.2959C382.968 91.2766 382.681 91.3296 382.42 91.45C379.957 92.5797 377.28 93.1663 374.57 93.17C367.1 93.17 362.47 87.94 362.47 81.33C362.47 74.72 367.1 69.49 374.57 69.49C377.28 69.4974 379.958 70.0874 382.42 71.22C382.68 71.3401 382.967 71.3931 383.253 71.3743C383.539 71.3556 383.816 71.2656 384.058 71.1125C384.301 70.9595 384.501 70.7483 384.641 70.4981C384.781 70.2479 384.856 69.9667 384.86 69.68V63.25C384.861 62.911 384.762 62.5792 384.575 62.2963C384.388 62.0134 384.122 61.7921 383.81 61.66C380.874 60.4781 377.735 59.8803 374.57 59.9C361.27 59.9 352.26 69.51 352.26 81.35C352.26 93.19 361.26 102.8 374.57 102.8C377.736 102.825 380.875 102.227 383.81 101.04C384.122 100.911 384.389 100.692 384.576 100.41C384.763 100.129 384.862 99.7979 384.86 99.46V93Z" fill="white"/>
</g>
<defs>
<linearGradient id="paint0_linear" x1="0.859982" y1="74.175" x2="131.12" y2="74.175" gradientUnits="userSpaceOnUse">
<stop offset="0.02" stop-color="#2ABCF1"/>
<stop offset="1" stop-color="#6A4DE3"/>
</linearGradient>
<linearGradient id="paint1_linear" x1="392.251" y1="75.54" x2="539.704" y2="75.54" gradientUnits="userSpaceOnUse">
<stop offset="0.02" stop-color="#2ABCF1"/>
<stop offset="1" stop-color="#6A4DE3"/>
</linearGradient>
<linearGradient id="paint2_linear" x1="392.251" y1="75.54" x2="539.704" y2="75.54" gradientUnits="userSpaceOnUse">
<stop offset="0.02" stop-color="#2ABCF1"/>
<stop offset="1" stop-color="#6A4DE3"/>
</linearGradient>
<linearGradient id="paint3_linear" x1="392.251" y1="75.54" x2="539.704" y2="75.54" gradientUnits="userSpaceOnUse">
<stop offset="0.02" stop-color="#2ABCF1"/>
<stop offset="1" stop-color="#6A4DE3"/>
</linearGradient>
<clipPath id="clip0">
<rect width="538.86" height="148.35" fill="white" transform="translate(0.859985)"/>
</clipPath>
</defs>
</svg>
